<?xml version="1.0" encoding="utf-8"?>
<svg xmlns="http://www.w3.org/2000/svg" viewBox="115.053 195 789.522 586.7715" width="789.522pt" height="586.771pt" preserveAspectRatio="none"><g style="pointer-events: none;" id="object-0" transform="matrix(1, 0, 0, 1, 2.842170943040401e-14, 0)"><g transform="matrix(0.1, 0, 0, -0.1, 0, 1024.000015)" fill="#000000" stroke="none"><path d="M2784 8271 c-35 -16 -64 -53 -222 -277 -102 -146 -184 -273 -188 -290 -12 -66 17 -102 365 -449 l330 -329 -123 -28 c-455 -101 -822 -302 -1133 -619 -126 -129 -175 -190 -280 -347 -285 -426 -421 -961 -373 -1466 41 -425 208 -855 458 -1175 343 -439 806 -725 1342 -828 185 -35 510 -44 693 -18 439 61 811 233 1144 526 52 46 104 96 115 112 20 27 20 28 0 45 -47 41 -140 167 -226 305 l-17 28 -113 -109 c-237 -227 -534 -381 -876 -453 -142 -30 -463 -33 -615 -5 -560 102 -1039 457 -1291 956 -196 388 -247 869 -139 1295 162 639 671 1151 1307 1314 149 39 280 53 468 53 301 -1 540 -56 799 -187 187 -94 321 -193 481 -355 258 -261 422 -592 500 -1005 19 -101 24 -327 11 -464 -13 -126 -13 -126 17 -241 16 -63 48 -162 71 -220 44 -112 121 -262 138 -267 13 -5 82 153 122 278 33 106 65 259 81 389 13 108 13 369 0 485 -70 612 -408 1201 -903 1571 -277 208 -643 361 -979 412 l-118 17 203 205 c449 454 478 486 486 521 9 41 -3 80 -42 134 -16 22 -95 134 -175 249 -81 115 -160 219 -175 230 -28 21 -39 21 -565 23 -506 3 -539 2 -578 -16z m989 -323 c83 -114 177 -251 174 -254 -2 -2 -272 -3 -600 -2 l-596 3 102 143 102 142 397 0 397 0 24 -32z m-130 -568 c3 -3 -62 -74 -144 -157 l-150 -152 -132 136 c-73 75 -140 145 -149 154 -16 17 -15 18 10 21 43 5 560 3 565 -2z" style="fill: rgb(255, 255, 255);"/><path d="M6315 8276 c-16 -7 -40 -24 -51 -37 -45 -51 -357 -494 -366 -521 -25 -73 -21 -78 348 -449 l345 -346 -73 -7 c-207 -19 -529 -112 -733 -211 -181 -88 -357 -206 -497 -335 l-68 -61 67 -82 c64 -79 105 -139 166 -242 l28 -48 92 90 c108 105 181 162 305 237 704 429 1652 294 2227 -316 515 -547 661 -1289 384 -1953 -131 -315 -387 -629 -668 -816 -410 -275 -935 -374 -1416 -268 -376 83 -669 249 -950 540 -288 297 -454 666 -496 1097 -13 131 -3 306 25 426 13 54 12 66 -6 135 -33 126 -86 260 -155 386 -79 147 -90 162 -104 148 -20 -20 -91 -199 -124 -313 -55 -192 -76 -339 -82 -570 -4 -150 -1 -237 10 -325 74 -586 339 -1081 780 -1461 307 -264 650 -429 1053 -508 564 -109 1131 -13 1612 275 364 218 671 556 858 944 104 214 161 397 201 640 25 156 25 525 0 680 -91 546 -351 1021 -757 1377 -280 247 -596 413 -959 504 -75 18 -144 34 -153 34 -10 0 -18 1 -18 3 0 1 155 158 345 347 221 220 349 355 355 375 6 18 7 42 1 61 -8 28 -316 478 -365 533 -45 51 -47 51 -608 51 -414 -1 -529 -4 -553 -14z m1020 -378 c31 -46 76 -111 101 -145 l46 -63 -607 0 c-334 0 -605 4 -603 8 2 4 48 69 103 145 l100 137 402 0 402 0 56 -82z m-183 -517 c13 -5 -15 -39 -133 -161 l-149 -155 -149 155 -149 155 36 6 c49 8 522 9 544 0z" style="fill: rgb(255, 255, 255);"/></g></g></svg>