<?xml version="1.0" encoding="utf-8"?>
<svg version="1.0" xmlns="http://www.w3.org/2000/svg" width="662.000000pt" height="656.000000pt" viewBox="0 0 662.000000 656.000000" preserveAspectRatio="xMidYMid meet">
  <g transform="translate(0.000000,656.000000) scale(0.100000,-0.100000)" fill="#000000" stroke="none">
    <path d="M4525 5511 c-145 -29 -286 -128 -360 -254 -13 -23 -47 -111 -75 -196 -50 -149 -92 -233 -149 -295 -43 -47 -140 -105 -213 -127 -79 -24 -79 -31 -2 -97 149 -127 357 -147 557 -55 61 28 63 29 97 12 110 -54 285 -63 409 -20 164 57 297 195 353 366 7 23 13 84 12 145 0 89 -5 115 -28 175 -62 162 -173 270 -333 326 -64 22 -203 33 -268 20z" style="fill: rgb(255, 255, 255);"/>
    <path d="M2178 5440 c-122 -22 -277 -134 -343 -247 -121 -206 -88 -451 85 -617 160 -155 393 -191 594 -92 230 114 332 414 225 661 -38 89 -131 190 -219 241 -88 51 -234 74 -342 54z" style="fill: rgb(255, 255, 255);"/>
    <path d="M4401 4370 c-57 -12 -158 -60 -198 -94 -37 -31 -156 -182 -413 -526 -211 -281 -274 -375 -326 -483 -20 -42 -40 -77 -44 -77 -16 0 -270 270 -304 322 -20 31 -36 59 -36 62 0 2 -17 35 -38 73 -41 72 -47 82 -193 352 -106 197 -152 254 -236 296 l-58 30 -309 3 c-265 3 -317 1 -360 -13 -70 -23 -129 -67 -173 -128 -21 -29 -85 -112 -143 -186 -58 -73 -114 -145 -125 -160 -11 -15 -67 -87 -125 -160 -165 -208 -155 -189 -205 -387 -26 -99 -69 -267 -97 -374 -61 -232 -62 -240 -54 -285 8 -40 55 -99 97 -121 36 -18 102 -18 138 0 41 22 89 80 100 123 6 21 48 193 95 381 96 387 74 340 250 546 l111 129 3 -594 2 -594 -56 -205 c-31 -113 -75 -270 -96 -350 l-40 -145 -297 -425 c-164 -234 -312 -447 -331 -474 -60 -89 -50 -211 23 -272 44 -37 105 -64 148 -64 48 0 133 44 167 88 27 34 351 508 570 833 98 146 103 157 172 409 97 359 152 554 156 562 8 12 51 9 89 -6 63 -27 72 -46 432 -951 349 -879 339 -855 374 -891 75 -78 200 -84 289 -14 34 26 37 27 80 14 89 -27 161 -13 218 40 38 35 428 569 594 813 101 148 110 165 149 288 23 71 44 132 47 135 6 8 336 0 344 -8 4 -4 113 -272 242 -596 130 -323 243 -602 253 -619 10 -16 35 -44 56 -60 51 -42 143 -50 204 -18 77 39 120 117 110 195 -3 22 -39 124 -80 226 -41 102 -109 271 -151 375 -42 105 -81 199 -86 210 -16 35 -120 294 -120 299 0 3 49 3 110 -1 92 -5 113 -3 135 11 14 9 25 23 25 31 0 9 -22 73 -49 143 -50 132 -375 913 -431 1036 l-31 70 2 180 c2 203 -3 200 74 56 68 -129 130 -189 340 -331 99 -67 230 -156 290 -198 102 -71 114 -76 162 -76 58 0 93 20 131 76 20 29 23 44 20 94 -2 41 -11 70 -25 91 -11 16 -107 88 -213 159 -106 72 -220 153 -255 182 -79 65 -161 174 -305 407 -281 453 -299 475 -446 527 -67 24 -276 35 -353 19z m-211 -912 c-1 -266 17 -191 -132 -558 -42 -102 -119 -291 -171 -420 -53 -129 -123 -302 -156 -384 -63 -153 -70 -179 -48 -193 6 -4 82 -8 167 -8 85 -1 156 -4 158 -8 4 -13 -45 -101 -105 -184 -32 -46 -168 -239 -303 -429 -211 -300 -245 -344 -251 -323 -26 93 -270 714 -488 1241 -72 175 -136 339 -141 365 -7 30 -9 234 -8 537 l3 488 74 -148 74 -149 192 -195 c179 -182 193 -198 198 -238 6 -52 37 -100 86 -133 30 -20 48 -24 111 -24 65 0 81 4 117 27 54 35 83 91 83 159 0 44 9 68 71 182 92 170 120 210 281 408 73 90 142 176 153 191 11 15 23 28 28 28 4 0 7 -105 7 -232z" style="fill: rgb(255, 255, 255);"/>
  </g>
</svg>