<?xml version="1.0" encoding="utf-8"?>
<svg version="1.0" xmlns="http://www.w3.org/2000/svg" width="609.000000pt" height="593.000000pt" viewBox="0 0 609.000000 593.000000" preserveAspectRatio="xMidYMid meet">
  <g transform="translate(0.000000,593.000000) scale(0.100000,-0.100000)" fill="#000000" stroke="none">
    <path d="M4113 5395 c-223 -48 -388 -238 -409 -468 -32 -369 333 -659 683 -542 159 54 276 163 334 313 33 86 38 244 10 338 -41 138 -144 258 -276 320 -113 54 -217 66 -342 39z" style="fill: rgb(255, 255, 255);"/>
    <path d="M1810 5335 c-173 -54 -304 -190 -354 -366 -8 -29 -22 -101 -31 -159 -22 -148 -35 -211 -50 -241 -23 -44 -78 -90 -122 -102 -24 -6 -43 -14 -43 -18 0 -4 21 -25 46 -48 85 -75 187 -89 300 -41 l51 22 53 -27 c113 -57 271 -79 392 -54 194 40 362 207 404 401 61 287 -91 551 -365 632 -67 20 -219 20 -281 1z" style="fill: rgb(255, 255, 255);"/>
    <path d="M3895 4236 c-88 -21 -172 -74 -241 -151 -35 -38 -140 -169 -235 -290 -169 -217 -217 -295 -277 -450 -47 -123 -134 -331 -140 -337 -4 -4 -59 80 -122 185 -256 428 -522 843 -573 895 -66 67 -152 110 -248 124 -100 14 -341 4 -399 -16 -72 -26 -144 -82 -199 -154 -28 -37 -133 -173 -233 -304 -101 -130 -202 -271 -226 -313 -24 -42 -97 -208 -163 -369 -66 -160 -130 -313 -142 -340 -32 -71 -31 -169 2 -215 27 -37 90 -70 136 -71 44 0 116 40 142 78 12 18 37 72 56 120 82 208 191 470 209 507 12 22 73 112 137 200 107 147 116 158 119 130 2 -16 2 -127 -1 -245 -4 -201 -6 -219 -30 -280 -14 -36 -60 -157 -102 -270 -42 -113 -108 -286 -145 -385 -129 -340 -170 -453 -170 -472 0 -38 19 -43 171 -43 l147 0 -31 -57 c-17 -32 -78 -120 -136 -196 -121 -157 -129 -168 -383 -495 -103 -133 -195 -256 -205 -274 -11 -22 -17 -55 -18 -98 0 -56 4 -71 30 -109 57 -85 171 -116 267 -73 51 23 57 29 184 197 53 72 132 175 174 230 42 55 160 211 262 346 l185 245 47 130 c26 71 49 135 51 142 4 10 40 12 155 10 l151 -3 118 -280 c340 -812 396 -943 418 -977 43 -70 144 -97 232 -62 35 14 43 14 90 -2 66 -21 129 -14 181 19 27 19 85 94 202 262 587 848 568 817 606 950 11 39 32 108 47 155 15 47 33 105 40 130 7 25 30 99 50 165 20 66 42 138 49 160 11 38 14 40 57 43 l45 3 54 -123 c29 -68 65 -150 80 -183 15 -33 103 -233 195 -445 92 -212 176 -403 186 -425 22 -50 199 -460 230 -535 49 -117 106 -171 196 -186 83 -13 175 39 217 123 32 65 23 108 -78 346 -52 122 -139 330 -195 462 -56 132 -108 254 -115 270 -8 17 -53 122 -101 235 -47 113 -92 219 -100 235 -7 17 -44 102 -82 190 l-68 160 -3 365 c-2 201 -2 414 0 475 l3 109 64 -114 c125 -222 101 -196 475 -518 65 -57 135 -112 157 -122 79 -41 165 -17 216 59 18 26 23 48 23 93 0 89 -21 120 -162 236 -329 270 -289 223 -455 537 -55 105 -112 210 -125 235 -14 25 -51 94 -83 154 -86 163 -149 224 -274 266 -54 18 -84 20 -303 19 -154 0 -261 -5 -293 -13z m-236 -2023 c-45 -147 -87 -288 -94 -313 -8 -25 -23 -79 -35 -120 -25 -85 -45 -117 -308 -490 -267 -377 -283 -400 -290 -400 -4 0 -40 83 -81 183 -40 100 -84 207 -97 237 -51 122 -184 450 -184 454 0 3 46 7 101 8 83 2 104 6 113 20 11 19 3 49 -92 313 -27 77 -109 307 -181 510 -73 204 -136 380 -141 393 -6 13 -10 102 -10 199 l0 176 188 -301 c103 -166 224 -362 270 -437 99 -161 129 -187 219 -188 35 0 70 6 90 16 40 21 85 76 102 124 13 36 178 444 205 508 8 17 26 62 41 102 20 51 61 116 144 228 l116 156 3 -555 2 -555 -81 -268z" style="fill: rgb(255, 255, 255);"/>
  </g>
</svg> 